<svg width="16" height="14" viewBox="0 0 16 14" fill="none" xmlns="http://www.w3.org/2000/svg">
<path fill-rule="evenodd" clip-rule="evenodd" d="M15.1111 0C15.602 0 16 0.447715 16 1C16 1.51284 15.6569 1.93551 15.2148 1.99327L15.1111 2H0.888889C0.397969 2 0 1.55228 0 1C0 0.487164 0.343147 0.0644928 0.785226 0.00672773L0.888889 0H15.1111ZM15.1111 6C15.602 6 16 6.44772 16 7C16 7.51284 15.6569 7.93551 15.2148 7.99327L15.1111 8H0.888889C0.397969 8 0 7.55228 0 7C0 6.48716 0.343147 6.06449 0.785226 6.00673L0.888889 6H15.1111ZM16 13C16 12.4477 15.602 12 15.1111 12H0.888889L0.785226 12.0067C0.343147 12.0645 0 12.4872 0 13C0 13.5523 0.397969 14 0.888889 14H15.1111L15.2148 13.9933C15.6569 13.9355 16 13.5128 16 13Z" fill="#EDA3B5"/>
</svg>
